<svg width="12" height="14" viewBox="0 0 12 14" fill="none" xmlns="http://www.w3.org/2000/svg">
<g clip-path="url(#clip0_65_73)">
<path d="M1.71429 0.875C0.76875 0.875 0 1.65977 0 2.625V11.375C0 12.3402 0.76875 13.125 1.71429 13.125H10.2857C11.2313 13.125 12 12.3402 12 11.375V2.625C12 1.65977 11.2313 0.875 10.2857 0.875H1.71429ZM4.07143 6.34375H7.92857C8.28482 6.34375 8.57143 6.63633 8.57143 7C8.57143 7.36367 8.28482 7.65625 7.92857 7.65625H4.07143C3.71518 7.65625 3.42857 7.36367 3.42857 7C3.42857 6.63633 3.71518 6.34375 4.07143 6.34375Z" fill="#FF4757"/>
</g>
<defs>
<clipPath id="clip0_65_73">
<rect width="12" height="14" fill="white"/>
</clipPath>
</defs>
</svg>
