<svg width="13" height="17" viewBox="0 0 13 17" fill="none" xmlns="http://www.w3.org/2000/svg">
<path d="M11.5985 5.00038C12.0216 4.58534 12.0216 3.91132 11.5985 3.49628C11.1753 3.08124 10.488 3.08124 10.0649 3.49628L6.50002 6.99589L2.93179 3.4996C2.50861 3.08456 1.82137 3.08456 1.39819 3.4996C0.975016 3.91464 0.975016 4.58866 1.39819 5.0037L4.96642 8.49999L1.40158 11.9996C0.978402 12.4146 0.978402 13.0887 1.40158 13.5037C1.82476 13.9187 2.512 13.9187 2.93517 13.5037L6.50002 10.0041L10.0682 13.5004C10.4914 13.9154 11.1787 13.9154 11.6018 13.5004C12.025 13.0853 12.025 12.4113 11.6018 11.9963L8.03361 8.49999L11.5985 5.00038Z" fill="white"/>
</svg>
