<svg width="12" height="12" viewBox="0 0 12 12" fill="none" xmlns="http://www.w3.org/2000/svg">
<g clip-path="url(#clip0_65_79)">
<path d="M11.0531 0.508618C10.5398 -0.00466309 9.71016 -0.00466309 9.19687 0.508618L8.49141 1.21174L10.7859 3.50627L11.4914 2.80081C12.0047 2.28752 12.0047 1.45784 11.4914 0.944556L11.0531 0.508618ZM4.04062 5.66487C3.89766 5.80784 3.7875 5.98362 3.72422 6.17815L3.03047 8.2594C2.9625 8.46096 3.01641 8.68362 3.16641 8.83596C3.31641 8.98831 3.53906 9.03987 3.74297 8.9719L5.82422 8.27815C6.01641 8.21487 6.19219 8.10471 6.3375 7.96174L10.2586 4.03831L7.96172 1.74143L4.04062 5.66487ZM2.25 1.50002C1.00781 1.50002 0 2.50784 0 3.75002V9.75002C0 10.9922 1.00781 12 2.25 12H8.25C9.49219 12 10.5 10.9922 10.5 9.75002V7.50002C10.5 7.08518 10.1648 6.75002 9.75 6.75002C9.33516 6.75002 9 7.08518 9 7.50002V9.75002C9 10.1649 8.66484 10.5 8.25 10.5H2.25C1.83516 10.5 1.5 10.1649 1.5 9.75002V3.75002C1.5 3.33518 1.83516 3.00002 2.25 3.00002H4.5C4.91484 3.00002 5.25 2.66487 5.25 2.25002C5.25 1.83518 4.91484 1.50002 4.5 1.50002H2.25Z" fill="#E2E2E2"/>
</g>
<defs>
<clipPath id="clip0_65_79">
<rect width="12" height="12" fill="white"/>
</clipPath>
</defs>
</svg>
