<svg width="12" height="12" viewBox="0 0 12 12" fill="none" xmlns="http://www.w3.org/2000/svg">
<path d="M6 7.875L7.875 6M7.875 6L6 4.125M7.875 6H1M4.125 3.03037V3.00012C4.125 2.30006 4.125 1.94976 4.26124 1.68237C4.38108 1.44717 4.57217 1.25608 4.80737 1.13624C5.07476 1 5.42506 1 6.12512 1H9.00012C9.70019 1 10.0497 1 10.3171 1.13624C10.5523 1.25608 10.744 1.44717 10.8639 1.68237C11 1.9495 11 2.29937 11 2.99807V9.00224C11 9.70093 11 10.0503 10.8639 10.3174C10.744 10.5526 10.5523 10.744 10.3171 10.8639C10.05 11 9.70063 11 9.00193 11H6.12307C5.42437 11 5.0745 11 4.80737 10.8639C4.57217 10.744 4.38108 10.5524 4.26124 10.3172C4.125 10.0499 4.125 9.70007 4.125 9V8.96875" stroke="white" stroke-width="0.7" stroke-linecap="round" stroke-linejoin="round"/>
</svg>
