<svg width="153" height="153" viewBox="0 0 153 153" fill="none" xmlns="http://www.w3.org/2000/svg">
<g clip-path="url(#clip0_2_5)">
<path d="M83.9041 19.1257C117.135 19.1257 144.707 40.4216 149.906 68.3301C150.487 65.2161 150.786 62.0211 150.786 58.7654C150.786 26.3095 120.841 0.000427246 83.9041 0.000427246C46.9626 0.000427246 17.0177 26.3095 17.0177 58.7654C17.0177 62.0211 17.3219 65.2161 17.9026 68.3301C23.1016 40.4216 50.6729 19.1257 83.9041 19.1257Z" fill="#138CC8"/>
<path d="M114.199 43.8644C140.203 62.0422 146.689 93.7896 130.985 118.471C133.645 116.349 136.143 114.016 138.452 111.469C161.452 86.0713 156.662 49.1003 127.754 28.8938C98.8512 8.68724 56.7705 12.8946 33.7715 38.2924C31.4669 40.8395 29.4389 43.5081 27.6875 46.2576C51.5301 27.2659 88.195 25.6826 114.199 43.8644Z" fill="#7EC3EB"/>
<path d="M122.559 74.547C132.981 102.273 118.614 131.951 90.0841 145.038C93.6285 144.55 97.1728 143.796 100.694 142.776C135.769 132.599 154.813 99.3657 143.231 68.5457C131.648 37.7298 93.822 20.9975 58.7472 31.1737C55.2306 32.1942 51.8705 33.4495 48.6903 34.9113C80.4788 30.4976 112.138 46.8207 122.559 74.547Z" fill="#21366D"/>
<path d="M113.209 102.464C106.296 131.024 76.8579 150.291 44.7099 148.955C48.0514 150.102 51.545 151.024 55.1724 151.701C91.3026 158.451 126.82 138.187 134.503 106.444C142.187 74.6969 119.123 43.4922 82.9926 36.7418C79.3652 36.0655 75.7472 35.6606 72.1613 35.5107C102.148 45.7802 120.118 73.9033 113.209 102.464Z" fill="#2C99D6"/>
<path d="M69.0949 133.871C35.8638 133.871 8.29246 112.575 3.09346 84.6705C2.51273 87.7844 2.20853 90.9753 2.20853 94.2352C2.20853 126.687 32.1535 153 69.0949 153C106.032 153 135.977 126.687 135.977 94.2352C135.977 90.9753 135.677 87.7844 135.096 84.6705C129.897 112.575 102.326 133.871 69.0949 133.871Z" fill="#138CC8"/>
<path d="M38.7962 109.137C12.792 90.955 6.30708 59.2117 22.0146 34.5305C19.3553 36.6485 16.8571 38.9809 14.5481 41.532C-8.45107 66.9257 -3.66229 103.897 25.2456 124.103C54.1489 144.31 96.2249 140.103 119.224 114.705C121.533 112.158 123.561 109.493 125.313 106.739C101.47 125.735 64.805 127.315 38.7962 109.137Z" fill="#7EC3EB"/>
<path d="M30.4385 78.4543C20.0175 50.728 34.3839 21.0459 62.9139 7.95819C59.3695 8.45223 55.8205 9.20136 52.2992 10.2218C17.2244 20.398 -1.8202 53.6315 9.76232 84.4515C21.3494 115.267 59.1713 132.004 94.2461 121.823C97.7674 120.803 101.127 119.548 104.308 118.09C72.519 122.504 40.8595 106.176 30.4385 78.4543Z" fill="#21366D"/>
<path d="M39.7902 50.5339C46.6992 21.9735 76.1417 2.71038 108.29 4.0467C104.944 2.90071 101.45 1.97339 97.8274 1.29715C61.697 -5.45322 26.1797 14.81 18.4964 46.5573C10.8132 78.3006 33.8769 109.509 70.0071 116.256C73.6344 116.936 77.2525 117.341 80.8384 117.487C50.852 107.217 32.8813 79.0943 39.7902 50.5339Z" fill="#2C99D6"/>
</g>
<defs>
<clipPath id="clip0_2_5">
<rect width="153" height="153" fill="white"/>
</clipPath>
</defs>
</svg>
