<svg width="12" height="14" viewBox="0 0 12 14" fill="none" xmlns="http://www.w3.org/2000/svg">
<g clip-path="url(#clip0_65_77)">
<path d="M1.71429 0.875C0.76875 0.875 0 1.65977 0 2.625V11.375C0 12.3402 0.76875 13.125 1.71429 13.125H10.2857C11.2313 13.125 12 12.3402 12 11.375V2.625C12 1.65977 11.2313 0.875 10.2857 0.875H1.71429ZM9.02679 5.71484L5.59821 9.21484C5.34643 9.47187 4.93929 9.47187 4.69018 9.21484L2.97589 7.46484C2.72411 7.20781 2.72411 6.79219 2.97589 6.53789C3.22768 6.28359 3.63482 6.28086 3.88393 6.53789L5.14286 7.82305L8.11607 4.78516C8.36786 4.52813 8.775 4.52813 9.02411 4.78516C9.27321 5.04219 9.27589 5.45781 9.02411 5.71211L9.02679 5.71484Z" fill="#2ED573"/>
</g>
<defs>
<clipPath id="clip0_65_77">
<rect width="12" height="14" fill="white"/>
</clipPath>
</defs>
</svg>
