<svg width="11" height="11" viewBox="0 0 11 11" fill="none" xmlns="http://www.w3.org/2000/svg">
<path d="M6.625 4.44444V8.13889M4.375 4.44444V8.13889M2.125 2.33333V8.56111C2.125 9.15228 2.125 9.44766 2.24762 9.67345C2.35548 9.87207 2.52745 10.0339 2.73914 10.1351C2.97955 10.25 3.29443 10.25 3.92326 10.25H7.07674C7.70557 10.25 8.01999 10.25 8.26041 10.1351C8.47209 10.0339 8.64464 9.87207 8.7525 9.67345C8.875 9.44788 8.875 9.15275 8.875 8.56274V2.33333M2.125 2.33333H3.25M2.125 2.33333H1M3.25 2.33333H7.75M3.25 2.33333C3.25 1.84151 3.25 1.59571 3.33564 1.40173C3.44982 1.14309 3.66868 0.937482 3.94434 0.830349C4.15108 0.75 4.41332 0.75 4.9375 0.75H6.0625C6.58668 0.75 6.84878 0.75 7.05552 0.830349C7.33117 0.937482 7.55013 1.14309 7.66431 1.40173C7.74994 1.59571 7.75 1.84151 7.75 2.33333M7.75 2.33333H8.875M8.875 2.33333H10" stroke="#CAC9C9" stroke-linecap="round" stroke-linejoin="round"/>
</svg>
